<svg version="1.1" id="Layer_1" xmlns="http://www.w3.org/2000/svg" xmlns:xlink="http://www.w3.org/1999/xlink" x="0px" y="0px"
	 width="100%" viewBox="0 0 1024 1024" enable-background="new 0 0 1024 1024" xml:space="preserve">
<path fill="#FFFFFF" opacity="1.000000" stroke="none" 
	d="
M1.000000,390.000000 
	C1.000000,260.000031 1.000000,130.500031 1.000000,1.000035 
	C342.333282,1.000023 683.666565,1.000023 1025.000000,1.000012 
	C1025.000000,342.333252 1025.000000,683.666504 1025.000000,1024.999756 
	C683.666809,1024.999878 342.333618,1024.999878 1.000206,1025.000000 
	C1.000000,813.500000 1.000000,602.000000 1.000000,390.000000 
M2.999487,392.500000 
	C2.999487,575.997559 2.990310,759.495178 3.043063,942.992737 
	C3.044672,948.588135 3.123952,954.288757 4.139759,959.759705 
	C7.690378,978.882690 16.486643,995.118896 32.394165,1006.797302 
	C45.116489,1016.137146 59.079906,1022.063049 75.351868,1022.058533 
	C366.515625,1021.978455 657.679443,1022.004211 948.843201,1021.959290 
	C952.767273,1021.958740 956.735718,1021.609558 960.607849,1020.967346 
	C981.083130,1017.571899 997.089600,1007.156250 1009.321167,990.387268 
	C1019.414612,976.549561 1022.890198,960.772705 1022.898315,944.293701 
	C1023.039612,656.463257 1023.021790,368.632782 1022.879944,80.802376 
	C1022.876221,73.363914 1021.559387,65.827400 1020.032410,58.508217 
	C1016.447632,41.325809 1006.299377,28.262173 992.457458,18.100876 
	C980.554321,9.362962 967.204590,4.007914 952.145874,4.007365 
	C660.648743,3.996735 369.151642,3.994735 77.654549,4.041114 
	C72.899109,4.041871 68.053093,4.193233 63.404266,5.083376 
	C44.474827,8.707932 29.444395,18.567234 17.564951,33.758492 
	C6.504161,47.902870 3.134141,64.337967 3.100397,81.503265 
	C2.897264,184.835175 2.999488,288.167694 2.999487,392.500000 
z"/>
<path fill="#0274B3" opacity="1.000000" stroke="none" 
	d="
M2.999487,392.000000 
	C2.999488,288.167694 2.897264,184.835175 3.100397,81.503265 
	C3.134141,64.337967 6.504161,47.902870 17.564951,33.758492 
	C29.444395,18.567234 44.474827,8.707932 63.404266,5.083376 
	C68.053093,4.193233 72.899109,4.041871 77.654549,4.041114 
	C369.151642,3.994735 660.648743,3.996735 952.145874,4.007365 
	C967.204590,4.007914 980.554321,9.362962 992.457458,18.100876 
	C1006.299377,28.262173 1016.447632,41.325809 1020.032410,58.508217 
	C1021.559387,65.827400 1022.876221,73.363914 1022.879944,80.802376 
	C1023.021790,368.632782 1023.039612,656.463257 1022.898315,944.293701 
	C1022.890198,960.772705 1019.414612,976.549561 1009.321167,990.387268 
	C997.089600,1007.156250 981.083130,1017.571899 960.607849,1020.967346 
	C956.735718,1021.609558 952.767273,1021.958740 948.843201,1021.959290 
	C657.679443,1022.004211 366.515625,1021.978455 75.351868,1022.058533 
	C59.079906,1022.063049 45.116489,1016.137146 32.394165,1006.797302 
	C16.486643,995.118896 7.690378,978.882690 4.139759,959.759705 
	C3.123952,954.288757 3.044672,948.588135 3.043063,942.992737 
	C2.990310,759.495178 2.999487,575.997559 2.999487,392.000000 
M780.252625,390.199463 
	C777.641357,389.129913 775.057983,387.985107 772.414490,387.002228 
	C739.842468,374.891632 705.995972,371.345520 671.770874,374.866821 
	C619.256226,380.269897 576.899963,403.508881 548.882141,449.731537 
	C548.208435,450.843018 546.842651,451.535065 544.839722,453.239807 
	C544.839722,449.924347 544.839722,448.111938 544.839722,446.299530 
	C544.839722,427.968018 544.666382,409.633728 544.959167,391.306915 
	C545.034241,386.601868 543.637634,385.526428 539.119019,385.542969 
	C494.790710,385.705475 450.461517,385.641022 406.132599,385.641022 
	C404.387970,385.641022 402.643372,385.641022 400.964722,385.641022 
	C400.964722,547.863647 400.964722,709.254761 400.964722,870.682312 
	C451.019592,870.682312 500.750031,870.682312 550.839722,870.682312 
	C550.839722,868.399170 550.839722,866.429626 550.839722,864.460083 
	C550.839722,785.467896 550.770020,706.475647 550.882629,627.483643 
	C550.915955,604.115173 552.699158,580.928711 560.727234,558.665283 
	C568.553589,536.961060 582.068665,520.461975 604.130249,512.200012 
	C622.309143,505.392151 641.174500,504.269958 660.195251,507.522430 
	C684.301086,511.644409 700.742371,525.516052 709.903931,548.104675 
	C718.246155,568.673035 720.348633,590.390259 720.429932,612.210999 
	C720.743713,696.367554 720.608704,780.525696 720.640869,864.683289 
	C720.641602,866.634460 720.640991,868.585571 720.640991,870.671631 
	C771.336548,870.671631 821.548279,870.671631 872.000000,870.671631 
	C872.000000,868.363586 872.000000,866.382202 872.000000,864.400879 
	C872.000000,784.908752 872.112610,705.416443 871.928101,625.924744 
	C871.875977,603.460449 871.457886,580.972351 870.303894,558.541626 
	C868.890991,531.076294 864.687256,503.995514 855.936707,477.772369 
	C842.818481,438.460144 819.349121,408.060791 780.252625,390.199463 
M305.357391,867.406616 
	C305.357391,706.998596 305.357391,546.590576 305.357391,386.016663 
	C254.961380,386.016663 205.121857,386.016663 155.231720,386.016663 
	C155.231720,547.782654 155.231720,709.173767 155.231720,870.999695 
	C157.235123,870.999695 159.029709,870.999695 160.824295,870.999695 
	C191.650238,870.999695 222.476196,870.999756 253.302139,870.999695 
	C269.298309,870.999695 285.294495,871.015686 301.290558,870.977051 
	C303.094147,870.972656 305.647736,871.828369 305.357391,867.406616 
M166.514191,172.023987 
	C161.154755,180.164597 154.560486,187.753189 150.634857,196.534760 
	C123.716972,256.749786 170.783478,323.477264 236.656784,319.005066 
	C275.902161,316.340607 308.953827,287.427185 316.658569,249.019760 
	C324.347534,210.691238 305.344849,171.458984 270.523041,153.644135 
	C236.623276,136.301025 193.566406,142.568115 166.514191,172.023987 
z"/>
<path fill="#FFFFFF" opacity="1.000000" stroke="none" 
	d="
M780.610962,390.324005 
	C819.349121,408.060791 842.818481,438.460144 855.936707,477.772369 
	C864.687256,503.995514 868.890991,531.076294 870.303894,558.541626 
	C871.457886,580.972351 871.875977,603.460449 871.928101,625.924744 
	C872.112610,705.416443 872.000000,784.908752 872.000000,864.400879 
	C872.000000,866.382202 872.000000,868.363586 872.000000,870.671631 
	C821.548279,870.671631 771.336548,870.671631 720.640991,870.671631 
	C720.640991,868.585571 720.641602,866.634460 720.640869,864.683289 
	C720.608704,780.525696 720.743713,696.367554 720.429932,612.210999 
	C720.348633,590.390259 718.246155,568.673035 709.903931,548.104675 
	C700.742371,525.516052 684.301086,511.644409 660.195251,507.522430 
	C641.174500,504.269958 622.309143,505.392151 604.130249,512.200012 
	C582.068665,520.461975 568.553589,536.961060 560.727234,558.665283 
	C552.699158,580.928711 550.915955,604.115173 550.882629,627.483643 
	C550.770020,706.475647 550.839722,785.467896 550.839722,864.460083 
	C550.839722,866.429626 550.839722,868.399170 550.839722,870.682312 
	C500.750031,870.682312 451.019592,870.682312 400.964722,870.682312 
	C400.964722,709.254761 400.964722,547.863647 400.964722,385.641022 
	C402.643372,385.641022 404.387970,385.641022 406.132599,385.641022 
	C450.461517,385.641022 494.790710,385.705475 539.119019,385.542969 
	C543.637634,385.526428 545.034241,386.601868 544.959167,391.306915 
	C544.666382,409.633728 544.839722,427.968018 544.839722,446.299530 
	C544.839722,448.111938 544.839722,449.924347 544.839722,453.239807 
	C546.842651,451.535065 548.208435,450.843018 548.882141,449.731537 
	C576.899963,403.508881 619.256226,380.269897 671.770874,374.866821 
	C705.995972,371.345520 739.842468,374.891632 772.414490,387.002228 
	C775.057983,387.985107 777.641357,389.129913 780.610962,390.324005 
z"/>
<path fill="#FFFFFF" opacity="1.000000" stroke="none" 
	d="
M305.354950,867.898743 
	C305.647736,871.828369 303.094147,870.972656 301.290558,870.977051 
	C285.294495,871.015686 269.298309,870.999695 253.302139,870.999695 
	C222.476196,870.999756 191.650238,870.999695 160.824295,870.999695 
	C159.029709,870.999695 157.235123,870.999695 155.231720,870.999695 
	C155.231720,709.173767 155.231720,547.782654 155.231720,386.016663 
	C205.121857,386.016663 254.961380,386.016663 305.357391,386.016663 
	C305.357391,546.590576 305.357391,706.998596 305.354950,867.898743 
z"/>
<path fill="#FEFFFF" opacity="1.000000" stroke="none" 
	d="
M166.765961,171.773239 
	C193.566406,142.568115 236.623276,136.301025 270.523041,153.644135 
	C305.344849,171.458984 324.347534,210.691238 316.658569,249.019760 
	C308.953827,287.427185 275.902161,316.340607 236.656784,319.005066 
	C170.783478,323.477264 123.716972,256.749786 150.634857,196.534760 
	C154.560486,187.753189 161.154755,180.164597 166.765961,171.773239 
z"/>
</svg>