<svg width="300" height="300" viewBox="0 0 300 300" fill="none" xmlns="http://www.w3.org/2000/svg">
<g clip-path="url(#clip0_17_288)">
<path d="M278.514 175C275.177 192.246 268.384 208.637 258.544 223.188L273.744 238.388L238.388 273.744L223.188 258.544C208.637 268.384 192.246 275.177 175 278.514V300H125V278.514C107.754 275.177 91.3625 268.384 76.8116 258.544L61.6116 273.744L26.2563 238.388L41.4563 223.188C31.6164 208.637 24.8232 192.246 21.4859 175H0V125H21.4859C24.8232 107.754 31.6162 91.3625 41.4559 76.8116L26.2559 61.6116L61.6117 26.2563L76.8117 41.4563C91.3626 31.6164 107.754 24.8233 125 21.4859V0H175V21.4859C192.246 24.8231 208.637 31.6161 223.188 41.4559L238.388 26.2559L273.744 61.6113L258.544 76.8113C268.384 91.3623 275.177 107.754 278.514 125H300V175H278.514ZM150 42.5C90.6294 42.5 42.5 90.6294 42.5 150C42.5 209.371 90.6294 257.5 150 257.5C209.371 257.5 257.5 209.371 257.5 150C257.5 90.629 209.371 42.5 150 42.5ZM199.4 67.6708V117.6L87.4 165.6C87.4 165.6 87.4 165.6 87.4 77.2174C95.7056 70.0619 105.176 64.3827 115.4 60.4262V137.5L171.4 113.5C171.4 113.5 171.4 113.5 171.4 56.3955C181.273 58.6442 190.724 62.4503 199.4 67.6708ZM184.6 239.574V151.3L128.6 175.3C128.6 175.3 128.6 175.3 128.6 243.605C118.728 241.356 109.276 237.549 100.6 232.329V171.2L212.6 123.2C212.6 123.2 212.6 123.2 212.6 222.783C204.294 229.938 194.824 235.618 184.6 239.574Z" fill="black"/>
</g>
<defs>
<clipPath id="clip0_17_288">
<rect width="300" height="300" fill="white"/>
</clipPath>
</defs>
</svg>
